inDegrees=no
num_controls=7
num_derivatives=13
num_iterations=18
num_multipliers=7
num_parameters=0
num_slacks=7
num_states=26
objective=0.463031
objective_accelerations=0.000000
objective_balance=0.001477
objective_effort=0.014342
objective_height=0.441383
objective_ligament=0.005829
solver_duration=309.374046
status=Solve_Succeeded
success=true
DataType=double
version=3
OpenSimVersion=4.5
endheader
time	/jointset/ground_pelvis/pelvis_tilt/value	/jointset/ground_pelvis/pelvis_tx/value	/jointset/ground_pelvis/pelvis_ty/value	/jointset/hip_l/hip_flexion_l/value	/jointset/hip_l/hip_adduction_l/value	/jointset/hip_l/hip_rotation_l/value	/jointset/back/lumbar_extension/value	/jointset/patellofemoral_l/patellar_flexion_l/value	/jointset/knee_l/knee_flexion_l/value	/jointset/knee_l/knee_adduction_l/value	/jointset/knee_l/knee_rotation_l/value	/jointset/ankle_l/ankle_angle_l/value	/jointset/subtalar_l/subtalar_angle_l/value	/jointset/ground_pelvis/pelvis_tilt/speed	/jointset/ground_pelvis/pelvis_tx/speed	/jointset/ground_pelvis/pelvis_ty/speed	/jointset/hip_l/hip_flexion_l/speed	/jointset/hip_l/hip_adduction_l/speed	/jointset/hip_l/hip_rotation_l/speed	/jointset/back/lumbar_extension/speed	/jointset/patellofemoral_l/patellar_flexion_l/speed	/jointset/knee_l/knee_flexion_l/speed	/jointset/knee_l/knee_adduction_l/speed	/jointset/knee_l/knee_rotation_l/speed	/jointset/ankle_l/ankle_angle_l/speed	/jointset/subtalar_l/subtalar_angle_l/speed	/forceset/tau_hip_flexion_l	/forceset/tau_hip_adduction_l	/forceset/tau_hip_rotation_l	/forceset/tau_knee_flexion_l	/forceset/tau_ankle_angle_l	/forceset/tau_subtalar_angle_l	/forceset/tau_lumbar_extension	lambda_cid13_p0	lambda_cid13_p1	lambda_cid13_p2	lambda_cid13_p3	lambda_cid13_p4	lambda_cid13_p5	lambda_cid14_p0	/jointset/ground_pelvis/pelvis_tilt/accel	/jointset/ground_pelvis/pelvis_tx/accel	/jointset/ground_pelvis/pelvis_ty/accel	/jointset/hip_l/hip_flexion_l/accel	/jointset/hip_l/hip_adduction_l/accel	/jointset/hip_l/hip_rotation_l/accel	/jointset/back/lumbar_extension/accel	/jointset/patellofemoral_l/patellar_flexion_l/accel	/jointset/knee_l/knee_flexion_l/accel	/jointset/knee_l/knee_adduction_l/accel	/jointset/knee_l/knee_rotation_l/accel	/jointset/ankle_l/ankle_angle_l/accel	/jointset/subtalar_l/subtalar_angle_l/accel	gamma_cid13_p0	gamma_cid13_p1	gamma_cid13_p2	gamma_cid13_p3	gamma_cid13_p4	gamma_cid13_p5	gamma_cid14_p0
1	-0.3263665970226061	0.0815854266056097	0.8433947947237853	0.7230144410988114	-0.3219130380444092	-0.2852753266582886	-0.1683158852234789	0.4534533589819263	0.4534533589819124	-0.01179986464796059	-0.01074794466721852	0.1342221250470918	0.1248904725808006	-0.0008241288706726374	0.01669601363691149	0.006281022629950376	-0.0419558127050524	0.007548855504785172	-0.02555287110732417	-0.008308530991692058	-0.03824407879223056	-0.03824407879223039	0.009897051033736273	-0.00666316765497818	0.004045386053725683	0.01281947224383443	-0.154570395520947	0.134761900369315	-0.003239642748024051	-0.06330857993045955	-0.08428547775800027	-0.01280433107877505	0.1507231372392535	-62.83201884276325	13.34819275319471	1.207358849127446	8.522167943187334	-557.2443956555702	-21.2981631477108	-36.21521424479199	0.830275841710539	0.08046146238114103	0.2187905887534423	-1.556979232013163	0.2358015411892753	-0.2573663288303961	0.1472907283875924	-1.071051496390987	-1.071051496390987	0.1297989846914517	0.1171577255241494	-0.3521751797776181	0.05810224647636906	-6.32275159866131e-10	-2.801605072280747e-09	-1.190306989231472e-09	5.607333936772913e-10	-3.061237490990764e-09	7.40986522600389e-10	-7.253976690114548e-11
1.01	-0.3263338845952402	0.08175639500323023	0.8434684577813368	0.722517811622982	-0.3218257380546756	-0.2855434529101191	-0.168390973541323	0.453017626099211	0.4530176260991633	-0.01169434623259525	-0.01080849941272945	0.1342450444786034	0.1250216464724992	0.007361593462863416	0.01749916025289715	0.008450801259552398	-0.05736768845368897	0.009910390574532654	-0.02806858014819376	-0.006700715900615205	-0.04890460296050577	-0.0489046029605056	0.01120180676390373	-0.005445221179361042	0.0005385473779575904	0.01341418392627118	-0.1545399032081774	0.1348531500866723	-0.003266888200444214	-0.06305527347654144	-0.08443277800659736	-0.01284334140520244	0.150716939755353	-62.87667724052815	13.36066165343271	1.219412114521982	8.488569614680783	-557.1979512645557	-21.26399152060801	-36.22581578953427	0.8119675744797005	0.08046546154451502	0.2159525913048238	-1.532932434584199	0.2362176144086121	-0.2481035328172037	0.1687894009477193	-1.063868657375757	-1.063868657375855	0.1300892123686125	0.12449707484399	-0.3499313509300155	0.05998807628862941	-4.944626964631851e-10	-3.87106377827078e-09	-1.235782548825946e-09	2.299264650858239e-10	-3.820574029712286e-09	1.967811695622333e-10	-4.999304968307236e-12
1.02	-0.3262194655154653	0.08193543970707687	0.8435637948434335	0.7218671352520125	-0.3217148450892909	-0.2858366223206189	-0.1684497312079592	0.4524752248187233	0.4524752248187088	-0.01157592519084194	-0.01085679790026016	0.1342328968954714	0.1251587339704617	0.01551720160861179	0.0183112748821326	0.01061582353897436	-0.07276519173414615	0.01226745062592319	-0.03056150283315024	-0.005042400750294419	-0.05957775834198154	-0.05957775834198138	0.01247757630166749	-0.004211916053206409	-0.002968016875953667	0.01400219349516759	-0.1545094108954796	0.1349443998039598	-0.003294133652667685	-0.06280196702262784	-0.08458007825520023	-0.01288235173172393	0.1507107422714185	-62.92691764017615	13.37313533940912	1.232575559143716	8.457335428082807	-557.2388944701165	-21.2436932096308	-36.23862579806618	0.8242530041529617	0.08225506503115391	0.2178393187174349	-1.55410473837734	0.2349065375178935	-0.2528090576477477	0.1573907402363804	-1.073577739031135	-1.073577739031135	0.1240017462107014	0.1202294556317012	-0.352120295406196	0.05676182376834284	-3.275802885257591e-10	-5.017690606601294e-09	-1.410146563586113e-09	-1.153114726402503e-10	-4.576525813952773e-09	-3.374929425049792e-10	8.18366896839266e-11
1.03	-0.3260236342866015	0.08212264126756186	0.843680752397484	0.7210625732337825	-0.3215804111424808	-0.2861545915082886	-0.1684916656015875	0.4518260514758808	0.4518260514758317	-0.0114449038943514	-0.01089268740988839	0.134185683073035	0.1253016568817906	0.02364439909024291	0.01912961103501294	0.01277428909306558	-0.08814268549113782	0.01461814792649024	-0.03302839025379246	-0.003336967005996197	-0.07025681043796111	-0.07025681043796095	0.01372167300505212	-0.002964597525404965	-0.006474901299348251	0.01458052856428176	-0.1544054130424364	0.1350255968996824	-0.003318983505830651	-0.06249827851277324	-0.0847398935073839	-0.01294059260204765	0.150649986418307	-62.97623416307924	13.39268527161614	1.245883080637696	8.4483144494403	-557.1666418020545	-21.20829479876717	-36.25362127321466	0.8062567672882667	0.0817088693252291	0.2146393759882065	-1.528892409444594	0.2349738779562572	-0.2430372342719467	0.1782463369446918	-1.065054010632359	-1.065054010632456	0.1238608949399403	0.1271912215015315	-0.3499957835115184	0.05809148983233822	-1.604012485012464e-10	-6.165104864751609e-09	-1.585825766664298e-09	-4.606966655615757e-10	-5.332443059882229e-09	-8.716657153786105e-10	1.688695775271748e-10
1.04	-0.325746670353484	0.08231804338535621	0.8438192524475228	0.7201043721349716	-0.3214225057122916	-0.2864971113002057	-0.1685163203286882	0.4510700905989039	0.4510700905988888	-0.01130159217827057	-0.01091606210023924	0.1341033957528285	0.1254503075720879	0.03174374245670707	0.01995138634400189	0.01492432273665164	-0.1034930078515191	0.0169617472922601	-0.03547162367442287	-0.0015864674449276	-0.08093526516398226	-0.0809352651639821	0.01493566020996883	-0.001708952191719582	-0.009982716430958948	0.01514774928737871	-0.1543014151894666	0.135106793995336	-0.003343833358783007	-0.06219459000292352	-0.08489970875957341	-0.01299883347246516	0.15058923056516	-63.03114271711951	13.41222989638389	1.260315927428044	8.441535116891716	-557.1819814807002	-21.18696947753176	-36.27077997580617	0.8186821811195434	0.08294289625291745	0.2161529366164096	-1.548670459055298	0.2334869505584731	-0.2480782576453709	0.1664039035904613	-1.073458265039489	-1.073458265039489	0.1179798465171339	0.1218948168085344	-0.3523064370493827	0.05453895456494149	1.871364674580983e-11	-7.358155672685967e-09	-1.817266975826565e-09	-8.130101298259653e-10	-6.090333904147721e-09	-1.412957199506925e-09	2.645084109223808e-10
1.05	-0.3253888446934575	0.08252166854989086	0.843979205221188	0.718992819359982	-0.3212412104644351	-0.2868639241244759	-0.1685232682361509	0.4502073649920273	0.4502073649919778	-0.01114631587984105	-0.01092683760103169	0.1339860165675552	0.1256045543002076	0.03981717072090305	0.02077301425276797	0.01706426560043682	-0.1188109869659374	0.01929538071655766	-0.03788625451932488	0.0002024180382071258	-0.09160810592333327	-0.09160810592333313	0.01611328242855658	-0.000445652760413734	-0.01349417452919856	0.01569812930050039	-0.1541188015738517	0.1351751701955605	-0.003365861187356143	-0.06184250206266476	-0.08507467110810994	-0.01307642086684183	0.1504683999925177	-63.08603643295894	13.4390377585241	1.274888789324923	8.460622271114392	-557.0827975905967	-21.15139158277919	-36.29006934243713	0.8010408732838347	0.08167765506759878	0.2126186245627311	-1.522377168073682	0.2330147679882223	-0.2374529133411797	0.1859606835699631	-1.063934510960135	-1.063934510960229	0.1167042164840345	0.1286216791316482	-0.3507238026564156	0.05476906968087869	1.982015374685704e-10	-8.552632622801076e-09	-2.05045074767896e-09	-1.165540102569826e-09	-6.848286423361213e-09	-1.954471143361949e-09	3.604161801160855e-10
1.06	-0.3249504112059324	0.0827334909768878	0.8441604981561527	0.7177282836877669	-0.3210366362363624	-0.2872547427403223	-0.1685121613262024	0.4492379634716169	0.4492379634716018	-0.01097945319778721	-0.01092496527297331	0.1338334911400153	0.1257642011374654	0.04786530795369726	0.02159083883645723	0.01919235499650915	-0.1340895872979085	0.02161754332576407	-0.04027278198137826	0.002024496037185623	-0.1022704478657754	-0.1022704478657752	0.01725293692535051	0.0008206135844905341	-0.01701196488524396	0.01622777111343318	-0.1539361879583113	0.1352435463957175	-0.003387889015712769	-0.06149041412241182	-0.08524963345665251	-0.01315400826131093	0.1503475694198388	-63.1465257921891	13.46582564668099	1.290606792041134	8.481879255033068	-557.0712901431771	-21.13008707134365	-36.31145785128331	0.8136239748391834	0.08218223123757945	0.2137822430738461	-1.540794702565883	0.2311927875402718	-0.2424575810756382	0.1730424067592255	-1.071358501657743	-1.071358501657743	0.110386302158408	0.1224881995282554	-0.3535728886105257	0.05039131452720704	3.979977362748387e-10	-9.761737980948582e-09	-2.428271760587247e-09	-1.513057142051543e-09	-7.604229681919872e-09	-2.460729891307304e-09	4.764578394115698e-10
